<svg xmlns="http://www.w3.org/2000/svg" viewBox="0 0 64 64" fill="none">
  <rect x="8" y="8" width="48" height="48" rx="6" fill="#1E293B" stroke="#22D3EE" stroke-width="2"/>
  <rect x="24" y="12" width="8" height="8" rx="1" fill="#EF4444" stroke="#FCA5A5" stroke-width="0.5"/>
  <rect x="32" y="12" width="8" height="8" rx="1" fill="#EF4444" stroke="#FCA5A5" stroke-width="0.5"/>
  <rect x="24" y="20" width="8" height="8" rx="1" fill="#EF4444" stroke="#FCA5A5" stroke-width="0.5"/>
  <rect x="16" y="20" width="8" height="8" rx="1" fill="#EF4444" stroke="#FCA5A5" stroke-width="0.5"/>
  <rect x="20" y="32" width="8" height="8" rx="1" fill="#22D3EE" stroke="#67E8F9" stroke-width="0.5"/>
  <rect x="28" y="32" width="8" height="8" rx="1" fill="#22D3EE" stroke="#67E8F9" stroke-width="0.5"/>
  <rect x="36" y="32" width="8" height="8" rx="1" fill="#22D3EE" stroke="#67E8F9" stroke-width="0.5"/>
  <rect x="44" y="32" width="8" height="8" rx="1" fill="#22D3EE" stroke="#67E8F9" stroke-width="0.5"/>
  <rect x="28" y="44" width="8" height="8" rx="1" fill="#F59E0B" stroke="#FCD34D" stroke-width="0.5"/>
  <rect x="36" y="44" width="8" height="8" rx="1" fill="#F59E0B" stroke="#FCD34D" stroke-width="0.5"/>
  <rect x="28" y="36" width="8" height="8" rx="1" fill="#F59E0B" stroke="#FCD34D" stroke-width="0.5"/>
  <rect x="36" y="36" width="8" height="8" rx="1" fill="#F59E0B" stroke="#FCD34D" stroke-width="0.5"/>
</svg>
